<svg xmlns:xlink="http://www.w3.org/1999/xlink" viewBox="0 0 40 40" fill="none" xmlns="http://www.w3.org/2000/svg" class="h-5 w-auto" width="40"  height="40" ><path d="M39.97 38.366C40.138 39.38 39.584 40 38.587 40H1.414C.417 40-.137 39.324.03 38.31l4.1-27.606c.166-1.014.941-1.69 1.939-1.69h8.365V6.648C14.433 2.704 16.87 0 20.637 0s6.205 2.704 6.205 6.648v2.366h6.093c.997 0 1.773.62 1.94 1.634l5.096 27.718ZM2.3 37.86h8.975l-4.93-26.704L2.3 37.859Zm11.246 0h24.098l-4.93-26.704H8.616l4.93 26.704Zm3.102-28.846h7.978V6.647c0-2.422-1.274-4.394-3.989-4.394-2.714 0-3.989 1.972-3.989 4.394v2.366Z" fill="#000"></path></svg>