<svg xmlns:xlink="http://www.w3.org/1999/xlink" viewBox="0 0 48 48" fill="none" xmlns="http://www.w3.org/2000/svg" class="h-8 w-8 text-black" width="48"  height="48" ><mask id="arrow-slider-leftV3_svg__a" style="mask-type:alpha" maskUnits="userSpaceOnUse" x="0" y="0" width="48" height="48" fill="none"><path d="M0 48h48V0H0v48Z" fill="#FFFFFF"></path></mask><g mask="url(#arrow-slider-leftV3_svg__a)" fill="none"><path fill-rule="evenodd" clip-rule="evenodd" d="M1.875 24C1.875 11.78 11.781 1.875 24 1.875c12.22 0 22.125 9.906 22.125 22.125 0 12.22-9.906 22.125-22.125 22.125-12.22 0-22.125-9.906-22.125-22.125ZM0 24C0 10.745 10.745 0 24 0s24 10.745 24 24-10.745 24-24 24S0 37.255 0 24Zm9.517-1.734c-.388.194-.631.631-.631 1.068 0 .437.243.875.631 1.069C13.451 26.54 17.29 29.649 19.814 33h1.797c.292 0 .389-.194.243-.437-1.845-3.012-5.488-6.12-8.694-8.257h24.869c.582 0 .971-.389.971-.972s-.389-.971-.971-.971H13.16c3.206-2.137 6.849-5.246 8.694-8.257.146-.243.049-.437-.243-.437h-1.797c-2.574 3.4-6.363 6.46-10.297 8.597Z" fill="#00020D"></path></g></svg>