<svg xmlns:xlink="http://www.w3.org/1999/xlink" viewBox="0 0 14 20" fill="none" xmlns="http://www.w3.org/2000/svg" class="h-5 w-auto" width="14"  height="20" ><path d="M.646 20C.258 20 0 19.74 0 19.348v-.174c0-5.217 2.8-8.717 7-8.717s7 3.5 7 8.717v.174c0 .391-.258.652-.646.652H.646Zm12.493-.826c0-4.652-2.391-7.848-6.139-7.848S.862 14.522.862 19.174h12.277ZM7 9.696c2.692 0 4.803-2.196 4.803-4.848C11.803 2.196 9.693 0 7 0 4.308 0 2.197 2.196 2.197 4.848 2.197 7.5 4.307 9.696 7 9.696Zm0-.87c-2.175 0-3.942-1.782-3.942-3.978S4.825.87 7 .87c2.175 0 3.941 1.782 3.941 3.978 0 2.195-1.766 3.978-3.941 3.978Z" fill="#000"></path></svg>